<svg width="1025" height="798" viewBox="0 0 1025 798" fill="none" xmlns="http://www.w3.org/2000/svg">
<path d="M951.39 0.170731H73.3416C32.9305 0.170731 0.170898 32.9304 0.170898 73.3415V724.561C0.170898 764.972 32.9305 797.732 73.3416 797.732H951.39C991.802 797.732 1024.56 764.972 1024.56 724.561V73.3415C1024.56 32.9304 991.802 0.170731 951.39 0.170731Z" fill="black"/>
<path d="M613.906 331.986C628.744 317.148 702.933 235.539 784.541 235.539C880.987 242.958 962.596 450.689 710.352 413.594C688.095 406.175 673.257 413.594 665.838 413.594C680.676 458.108 673.257 502.621 673.257 517.459C673.257 524.878 658.419 539.716 628.744 554.554C628.744 576.81 636.162 621.324 621.325 636.162C599.068 658.419 539.716 658.419 510.041 636.162C502.622 628.743 495.203 606.486 502.622 584.229C480.365 584.229 465.527 584.229 458.108 584.229C435.851 584.229 421.013 584.229 398.757 584.229C398.757 606.486 398.757 628.743 391.338 636.162C369.081 658.419 309.729 658.419 280.054 636.162C265.216 621.324 265.216 591.648 272.635 561.973C265.216 561.973 250.378 554.554 242.959 547.135C205.864 561.973 153.932 569.392 146.513 561.973C146.513 539.716 191.026 532.297 228.121 502.621C220.702 428.432 198.445 265.215 435.851 272.634C517.459 272.634 576.811 302.31 613.906 331.986Z" fill="#62D2A2"/>
</svg>
